<svg width="173" height="130" viewBox="0 0 173 130" fill="none" xmlns="http://www.w3.org/2000/svg">
<path d="M86.4387 77C77.2721 65.8333 70.9387 41.5 86.4387 41.5C101.939 41.5 94.4387 65.6667 86.4387 77Z" fill="white"/>
<path d="M84.3236 86C84.9637 82.7995 88.6808 84.5 89.3236 86C90.6094 89 83.5236 90 84.3236 86Z" fill="white"/>
<path d="M29.4387 118.5L33.1887 109.5M43.4387 118.5L40.1887 109.5M48.9387 101V116.5M68.9387 116.5V108.5M68.9387 104V108.5M68.9387 108.5C70.2721 107.5 73.0387 105.5 73.4387 105.5M78.4387 102C78.4387 107.5 77.4387 115.5 81.9387 115M75.4387 105H81.9387M91.4387 101H103.939L91.4387 117.5H103.939M130.439 116C130.439 113 131.439 105 126.939 105C122.439 105 122.439 115 122.439 116C122.439 116.8 122.439 107.333 122.439 103M144.939 112C144.939 116 135.939 118 135.939 110.5C135.939 110.149 135.958 109.816 135.996 109.5M135.996 109.5C136.761 103.059 144.939 103.781 144.939 109.5H135.996ZM63.4387 112.5C63.4387 116.5 54.4387 117.3 54.4387 110.5C54.4387 109.962 54.492 109.462 54.5903 109M54.5903 109C55.7701 103.462 63.4387 103.462 63.4387 109H54.5903ZM33.1887 109.5L36.9387 100.5L40.1887 109.5M33.1887 109.5H40.1887M4.93872 126.5L86.4387 5.5L167.939 126.5H4.93872ZM86.4387 77C77.2721 65.8333 70.9387 41.5 86.4387 41.5C101.939 41.5 94.4387 65.6667 86.4387 77ZM84.3236 86C84.9637 82.7995 88.6808 84.5 89.3236 86C90.6094 89 83.5236 90 84.3236 86ZM107.439 110.5C107.439 104 116.939 104 116.939 110.5C116.939 117 107.439 117 107.439 110.5ZM1.5 128L86.4387 1.5L171.373 128H1.5Z" stroke="white" stroke-width="3" stroke-linejoin="round"/>
</svg>
